<mxfile host="65bd71144e">
    <diagram id="XzbGrOR2fAj4vK263_hS" name="Page-1">
        <mxGraphModel dx="2310" dy="1345" grid="1" gridSize="10" guides="1" tooltips="1" connect="1" arrows="1" fold="1" page="1" pageScale="1" pageWidth="1169" pageHeight="1654" math="0" shadow="0">
            <root>
                <mxCell id="0"/>
                <mxCell id="1" parent="0"/>
                <mxCell id="67" value="" style="rounded=0;whiteSpace=wrap;html=1;fillColor=none;fontColor=#3399FF;" vertex="1" parent="1">
                    <mxGeometry x="350" y="890" width="580" height="550" as="geometry"/>
                </mxCell>
                <mxCell id="27" value="" style="rounded=0;whiteSpace=wrap;html=1;fillColor=none;fontColor=#3399FF;" parent="1" vertex="1">
                    <mxGeometry x="200" y="280" width="360" height="480" as="geometry"/>
                </mxCell>
                <mxCell id="49" style="edgeStyle=none;html=1;exitX=0.25;exitY=1;exitDx=0;exitDy=0;entryX=0.25;entryY=0;entryDx=0;entryDy=0;fillColor=#f8cecc;strokeColor=#b85450;" edge="1" parent="1">
                    <mxGeometry relative="1" as="geometry">
                        <mxPoint x="222" y="480" as="sourcePoint"/>
                        <mxPoint x="222" y="680" as="targetPoint"/>
                    </mxGeometry>
                </mxCell>
                <mxCell id="5" value="main-dbu-pve [Hypervisor]" style="rounded=0;whiteSpace=wrap;html=1;strokeColor=#3399FF;fontColor=#3399FF;" parent="1" vertex="1">
                    <mxGeometry x="210" y="440" width="340" height="40" as="geometry"/>
                </mxCell>
                <mxCell id="29" value="HPE DL560 Baremetal Server @DBU" style="text;html=1;align=center;verticalAlign=middle;resizable=0;points=[];autosize=1;strokeColor=none;fillColor=none;fontColor=#3399FF;" parent="1" vertex="1">
                    <mxGeometry x="280" y="280" width="220" height="30" as="geometry"/>
                </mxCell>
                <mxCell id="45" value="raidz2 pool [ZFS]" style="rounded=0;whiteSpace=wrap;html=1;strokeColor=#3399FF;fontColor=#3399FF;" vertex="1" parent="1">
                    <mxGeometry x="210" y="710" width="340" height="40" as="geometry"/>
                </mxCell>
                <mxCell id="46" value="main-pve01-vm [Storage] (zfs)" style="rounded=0;whiteSpace=wrap;html=1;strokeColor=#3399FF;fontColor=#3399FF;" vertex="1" parent="1">
                    <mxGeometry x="210" y="680" width="340" height="20" as="geometry"/>
                </mxCell>
                <mxCell id="47" value="" style="verticalLabelPosition=bottom;html=1;verticalAlign=top;align=center;strokeColor=none;fillColor=#00BEF2;shape=mxgraph.azure.virtual_machine;" vertex="1" parent="1">
                    <mxGeometry x="210" y="390" width="50" height="40" as="geometry"/>
                </mxCell>
                <mxCell id="48" value="" style="verticalLabelPosition=bottom;html=1;verticalAlign=top;align=center;strokeColor=none;fillColor=#00BEF2;shape=mxgraph.azure.virtual_machine;" vertex="1" parent="1">
                    <mxGeometry x="280" y="390" width="50" height="40" as="geometry"/>
                </mxCell>
                <mxCell id="50" value="" style="edgeStyle=none;orthogonalLoop=1;jettySize=auto;html=1;fillColor=#f8cecc;strokeColor=#b85450;" edge="1" parent="1">
                    <mxGeometry width="80" relative="1" as="geometry">
                        <mxPoint x="20" y="120" as="sourcePoint"/>
                        <mxPoint x="100" y="120" as="targetPoint"/>
                        <Array as="points"/>
                    </mxGeometry>
                </mxCell>
                <mxCell id="51" value="storage connection" style="text;html=1;align=center;verticalAlign=middle;resizable=0;points=[];autosize=1;strokeColor=none;fillColor=none;" vertex="1" parent="1">
                    <mxGeometry x="100" y="100" width="120" height="30" as="geometry"/>
                </mxCell>
                <mxCell id="66" style="edgeStyle=none;html=1;entryX=0;entryY=0.5;entryDx=0;entryDy=0;rounded=0;curved=1;dashed=1;dashPattern=12 12;" edge="1" parent="1" source="52" target="63">
                    <mxGeometry relative="1" as="geometry">
                        <Array as="points">
                            <mxPoint x="620" y="660"/>
                        </Array>
                    </mxGeometry>
                </mxCell>
                <mxCell id="52" value="main-pve01-backup [Storage] (proxmox backup)" style="rounded=0;whiteSpace=wrap;html=1;strokeColor=#3399FF;fontColor=#3399FF;" vertex="1" parent="1">
                    <mxGeometry x="240" y="650" width="310" height="20" as="geometry"/>
                </mxCell>
                <mxCell id="54" style="edgeStyle=none;html=1;exitX=0.25;exitY=1;exitDx=0;exitDy=0;entryX=0.264;entryY=0.771;entryDx=0;entryDy=0;entryPerimeter=0;fillColor=#f8cecc;strokeColor=#b85450;" edge="1" parent="1" source="5" target="27">
                    <mxGeometry relative="1" as="geometry"/>
                </mxCell>
                <mxCell id="55" value="" style="rounded=0;whiteSpace=wrap;html=1;fillColor=none;fontColor=#3399FF;" vertex="1" parent="1">
                    <mxGeometry x="680" y="280" width="360" height="480" as="geometry"/>
                </mxCell>
                <mxCell id="57" value="main-dbu-pbs [Backup Server]" style="rounded=0;whiteSpace=wrap;html=1;strokeColor=#3399FF;fontColor=#3399FF;" vertex="1" parent="1">
                    <mxGeometry x="690" y="440" width="340" height="40" as="geometry"/>
                </mxCell>
                <mxCell id="58" value="HPE DL560 Baremetal Server @DBU" style="text;html=1;align=center;verticalAlign=middle;resizable=0;points=[];autosize=1;strokeColor=none;fillColor=none;fontColor=#3399FF;" vertex="1" parent="1">
                    <mxGeometry x="760" y="280" width="220" height="30" as="geometry"/>
                </mxCell>
                <mxCell id="59" value="raidz2 pool [ZFS]" style="rounded=0;whiteSpace=wrap;html=1;strokeColor=#3399FF;fontColor=#3399FF;" vertex="1" parent="1">
                    <mxGeometry x="690" y="710" width="340" height="40" as="geometry"/>
                </mxCell>
                <mxCell id="60" value="main-pbs01-backup [Storage] (zfs)" style="rounded=0;whiteSpace=wrap;html=1;strokeColor=#3399FF;fontColor=#3399FF;" vertex="1" parent="1">
                    <mxGeometry x="690" y="680" width="340" height="20" as="geometry"/>
                </mxCell>
                <mxCell id="63" value="main-pbs01-backup-ns&lt;div&gt;[Namespace]&lt;/div&gt;" style="rounded=0;whiteSpace=wrap;html=1;strokeColor=#3399FF;fontColor=#3399FF;" vertex="1" parent="1">
                    <mxGeometry x="690" y="630" width="170" height="40" as="geometry"/>
                </mxCell>
                <mxCell id="65" value="dr-pbs01-backup-ns&lt;div&gt;[Namespace]&lt;/div&gt;" style="rounded=0;whiteSpace=wrap;html=1;strokeColor=#3399FF;fontColor=#3399FF;" vertex="1" parent="1">
                    <mxGeometry x="860" y="630" width="170" height="40" as="geometry"/>
                </mxCell>
                <mxCell id="69" value="main-dbu-pve [Hypervisor]" style="rounded=0;whiteSpace=wrap;html=1;strokeColor=#3399FF;fontColor=#3399FF;" vertex="1" parent="1">
                    <mxGeometry x="360" y="980" width="560" height="40" as="geometry"/>
                </mxCell>
                <mxCell id="70" value="HPE DL560 Baremetal Server @DBU" style="text;html=1;align=center;verticalAlign=middle;resizable=0;points=[];autosize=1;strokeColor=none;fillColor=none;fontColor=#3399FF;" vertex="1" parent="1">
                    <mxGeometry x="540" y="890" width="220" height="30" as="geometry"/>
                </mxCell>
                <mxCell id="71" value="raidz2 pool [ZFS]" style="rounded=0;whiteSpace=wrap;html=1;strokeColor=#3399FF;fontColor=#3399FF;" vertex="1" parent="1">
                    <mxGeometry x="360" y="1390" width="560" height="40" as="geometry"/>
                </mxCell>
                <mxCell id="72" value="dr-pve01-vm [Storage] (zfs)" style="rounded=0;whiteSpace=wrap;html=1;strokeColor=#3399FF;fontColor=#3399FF;" vertex="1" parent="1">
                    <mxGeometry x="410" y="1140" width="260" height="20" as="geometry"/>
                </mxCell>
                <mxCell id="73" value="" style="verticalLabelPosition=bottom;html=1;verticalAlign=top;align=center;strokeColor=none;fillColor=#00BEF2;shape=mxgraph.azure.virtual_machine;" vertex="1" parent="1">
                    <mxGeometry x="360" y="930" width="50" height="40" as="geometry"/>
                </mxCell>
                <mxCell id="74" value="" style="verticalLabelPosition=bottom;html=1;verticalAlign=top;align=center;strokeColor=none;fillColor=#00BEF2;shape=mxgraph.azure.virtual_machine;" vertex="1" parent="1">
                    <mxGeometry x="430" y="930" width="50" height="40" as="geometry"/>
                </mxCell>
                <mxCell id="87" style="edgeStyle=none;html=1;entryX=0;entryY=0.5;entryDx=0;entryDy=0;rounded=0;curved=1;dashed=1;dashPattern=8 8;" edge="1" parent="1" source="75" target="81">
                    <mxGeometry relative="1" as="geometry">
                        <Array as="points">
                            <mxPoint x="480" y="1280"/>
                        </Array>
                    </mxGeometry>
                </mxCell>
                <mxCell id="75" value="dr-pve01-backup [Storage] (proxmox backup)" style="rounded=0;whiteSpace=wrap;html=1;strokeColor=#3399FF;fontColor=#3399FF;" vertex="1" parent="1">
                    <mxGeometry x="360" y="1180" width="290" height="20" as="geometry"/>
                </mxCell>
                <mxCell id="77" value="main-dbu-pbs [Backup Server]" style="rounded=0;whiteSpace=wrap;html=1;strokeColor=#3399FF;fontColor=#3399FF;" vertex="1" parent="1">
                    <mxGeometry x="360" y="1030" width="560" height="40" as="geometry"/>
                </mxCell>
                <mxCell id="78" value="dr-pool [Storage] (zfs)" style="rounded=0;whiteSpace=wrap;html=1;strokeColor=#3399FF;fontColor=#3399FF;" vertex="1" parent="1">
                    <mxGeometry x="360" y="1360" width="560" height="20" as="geometry"/>
                </mxCell>
                <mxCell id="79" value="&lt;div&gt;dr-pve01-vm&lt;/div&gt;&lt;div&gt;[Dataset]&lt;/div&gt;" style="rounded=0;whiteSpace=wrap;html=1;strokeColor=#3399FF;fontColor=#3399FF;" vertex="1" parent="1">
                    <mxGeometry x="360" y="1310" width="170" height="40" as="geometry"/>
                </mxCell>
                <mxCell id="80" value="&lt;div&gt;dr-pbs01-backup&lt;br&gt;[Dataset]&lt;/div&gt;" style="rounded=0;whiteSpace=wrap;html=1;strokeColor=#3399FF;fontColor=#3399FF;" vertex="1" parent="1">
                    <mxGeometry x="530" y="1310" width="390" height="40" as="geometry"/>
                </mxCell>
                <mxCell id="90" style="edgeStyle=none;html=1;entryX=0.5;entryY=0;entryDx=0;entryDy=0;rounded=0;curved=1;fillColor=#fff2cc;strokeColor=#d6b656;" edge="1" parent="1" source="81" target="65">
                    <mxGeometry relative="1" as="geometry">
                        <Array as="points">
                            <mxPoint x="-170" y="1330"/>
                            <mxPoint x="420" y="750"/>
                        </Array>
                    </mxGeometry>
                </mxCell>
                <mxCell id="81" value="dr-pbs01-backup-ns&lt;div&gt;[Namespace]&lt;/div&gt;" style="rounded=0;whiteSpace=wrap;html=1;strokeColor=#3399FF;fontColor=#3399FF;" vertex="1" parent="1">
                    <mxGeometry x="530" y="1260" width="210" height="40" as="geometry"/>
                </mxCell>
                <mxCell id="91" style="edgeStyle=none;html=1;entryX=0.5;entryY=0;entryDx=0;entryDy=0;rounded=0;curved=1;fillColor=#fff2cc;strokeColor=#d6b656;" edge="1" parent="1" source="82" target="63">
                    <mxGeometry relative="1" as="geometry">
                        <Array as="points">
                            <mxPoint x="1450" y="1280"/>
                        </Array>
                    </mxGeometry>
                </mxCell>
                <mxCell id="82" value="main-pbs01-backup-ns&lt;div&gt;[Namespace]&lt;/div&gt;" style="rounded=0;whiteSpace=wrap;html=1;strokeColor=#3399FF;fontColor=#3399FF;" vertex="1" parent="1">
                    <mxGeometry x="730" y="1260" width="190" height="40" as="geometry"/>
                </mxCell>
                <mxCell id="83" value="main-pve01-backup [Storage] (proxmox backup)" style="rounded=0;whiteSpace=wrap;html=1;strokeColor=#3399FF;fontColor=#3399FF;" vertex="1" parent="1">
                    <mxGeometry x="650" y="1180" width="270" height="20" as="geometry"/>
                </mxCell>
                <mxCell id="85" style="edgeStyle=none;html=1;exitX=0.25;exitY=1;exitDx=0;exitDy=0;entryX=0.464;entryY=0;entryDx=0;entryDy=0;entryPerimeter=0;fillColor=#f8cecc;strokeColor=#b85450;" edge="1" parent="1">
                    <mxGeometry relative="1" as="geometry">
                        <mxPoint x="380.0800000000002" y="1070" as="sourcePoint"/>
                        <mxPoint x="380.00000000000006" y="1180" as="targetPoint"/>
                    </mxGeometry>
                </mxCell>
                <mxCell id="86" style="edgeStyle=none;html=1;exitX=0.25;exitY=1;exitDx=0;exitDy=0;entryX=0.346;entryY=-0.15;entryDx=0;entryDy=0;entryPerimeter=0;fillColor=#f8cecc;strokeColor=#b85450;" edge="1" parent="1" source="77" target="72">
                    <mxGeometry relative="1" as="geometry"/>
                </mxCell>
                <mxCell id="88" value="" style="edgeStyle=none;orthogonalLoop=1;jettySize=auto;html=1;fillColor=#f8cecc;strokeColor=#b85450;dashed=1;" edge="1" parent="1">
                    <mxGeometry width="80" relative="1" as="geometry">
                        <mxPoint x="20" y="150" as="sourcePoint"/>
                        <mxPoint x="100" y="150" as="targetPoint"/>
                        <Array as="points"/>
                    </mxGeometry>
                </mxCell>
                <mxCell id="89" value="backup connection" style="text;html=1;align=center;verticalAlign=middle;resizable=0;points=[];autosize=1;strokeColor=none;fillColor=none;" vertex="1" parent="1">
                    <mxGeometry x="100" y="130" width="120" height="30" as="geometry"/>
                </mxCell>
                <mxCell id="92" value="" style="edgeStyle=none;orthogonalLoop=1;jettySize=auto;html=1;fillColor=#fff2cc;strokeColor=#d6b656;" edge="1" parent="1">
                    <mxGeometry width="80" relative="1" as="geometry">
                        <mxPoint x="20" y="180" as="sourcePoint"/>
                        <mxPoint x="100" y="180" as="targetPoint"/>
                        <Array as="points"/>
                    </mxGeometry>
                </mxCell>
                <mxCell id="93" value="sync connection" style="text;html=1;align=center;verticalAlign=middle;resizable=0;points=[];autosize=1;strokeColor=none;fillColor=none;" vertex="1" parent="1">
                    <mxGeometry x="105" y="160" width="110" height="30" as="geometry"/>
                </mxCell>
            </root>
        </mxGraphModel>
    </diagram>
</mxfile>